<svg xmlns="http://www.w3.org/2000/svg" width="640" height="380" viewBox="0 0 640 380"><line x1="48" y1="340" x2="624" y2="340" stroke="#999999" stroke-width="1" /><text x="42" y="344" text-anchor="end" font-family="sans-serif" font-size="11" font-weight="normal" fill="#999999">0</text><line x1="48" y1="275.2" x2="624" y2="275.2" stroke="#e6e6e6" stroke-width="1" /><text x="42" y="279.2" text-anchor="end" font-family="sans-serif" font-size="11" font-weight="normal" fill="#999999">20</text><line x1="48" y1="210.4" x2="624" y2="210.4" stroke="#e6e6e6" stroke-width="1" /><text x="42" y="214.4" text-anchor="end" font-family="sans-serif" font-size="11" font-weight="normal" fill="#999999">40</text><line x1="48" y1="145.6" x2="624" y2="145.6" stroke="#e6e6e6" stroke-width="1" /><text x="42" y="149.6" text-anchor="end" font-family="sans-serif" font-size="11" font-weight="normal" fill="#999999">60</text><line x1="48" y1="80.8" x2="624" y2="80.8" stroke="#e6e6e6" stroke-width="1" /><text x="42" y="84.8" text-anchor="end" font-family="sans-serif" font-size="11" font-weight="normal" fill="#999999">80</text><line x1="48" y1="16" x2="624" y2="16" stroke="#e6e6e6" stroke-width="1" /><text x="42" y="20" text-anchor="end" font-family="sans-serif" font-size="11" font-weight="normal" fill="#999999">100</text><polygon points="48,340 48,242.8 163.2,194.2 278.4,216.88 393.6,139.12 508.8,113.2 624,64.6 624,340" fill="#4e79a7" fill-opacity="0.18" /><polyline points="48,242.8 163.2,194.2 278.4,216.88 393.6,139.12 508.8,113.2 624,64.6" fill="none" stroke="#4e79a7" stroke-width="2" stroke-linejoin="round" stroke-linecap="round" /><circle cx="48" cy="242.8" r="3" fill="#4e79a7" /><circle cx="163.2" cy="194.2" r="3" fill="#4e79a7" /><circle cx="278.4" cy="216.88" r="3" fill="#4e79a7" /><circle cx="393.6" cy="139.12" r="3" fill="#4e79a7" /><circle cx="508.8" cy="113.2" r="3" fill="#4e79a7" /><circle cx="624" cy="64.6" r="3" fill="#4e79a7" /></svg>