<svg xmlns="http://www.w3.org/2000/svg" width="640" height="380" viewBox="0 0 640 380"><rect x="0" y="0" width="640" height="380" fill="#1e1e2e" /><path d="M 186 28 A 170 170 0 1 1 48.47 297.92 L 110.36 252.96 A 93.5 93.5 0 1 0 186 104.5 Z" fill="#6ea8e0" /><rect x="376" y="159" width="12" height="12" fill="#6ea8e0" rx="2" /><text x="394" y="168" text-anchor="start" font-family="sans-serif" font-size="11" font-weight="normal" fill="#cdd0e0">Chrome (65)</text><path d="M 48.47 297.92 A 170 170 0 0 1 37.03 116.1 L 104.07 152.96 A 93.5 93.5 0 0 0 110.36 252.96 Z" fill="#f6a04d" /><rect x="376" y="179" width="12" height="12" fill="#f6a04d" rx="2" /><text x="394" y="188" text-anchor="start" font-family="sans-serif" font-size="11" font-weight="normal" fill="#cdd0e0">Safari (18)</text><path d="M 37.03 116.1 A 170 170 0 0 1 113.62 44.18 L 146.19 113.4 A 93.5 93.5 0 0 0 104.07 152.96 Z" fill="#ef6f70" /><rect x="376" y="199" width="12" height="12" fill="#ef6f70" rx="2" /><text x="394" y="208" text-anchor="start" font-family="sans-serif" font-size="11" font-weight="normal" fill="#cdd0e0">Edge (10)</text><path d="M 113.62 44.18 A 170 170 0 0 1 186 28 L 186 104.5 A 93.5 93.5 0 0 0 146.19 113.4 Z" fill="#8fd4cd" /><rect x="376" y="219" width="12" height="12" fill="#8fd4cd" rx="2" /><text x="394" y="228" text-anchor="start" font-family="sans-serif" font-size="11" font-weight="normal" fill="#cdd0e0">Firefox (7)</text></svg>