<svg xmlns="http://www.w3.org/2000/svg" width="640" height="380" viewBox="0 0 640 380"><line x1="48" y1="332" x2="624" y2="332" stroke="#999999" stroke-width="1" /><text x="42" y="336" text-anchor="end" font-family="sans-serif" font-size="11" font-weight="normal" fill="#999999">0</text><line x1="48" y1="226.67" x2="624" y2="226.67" stroke="#e6e6e6" stroke-width="1" /><text x="42" y="230.67" text-anchor="end" font-family="sans-serif" font-size="11" font-weight="normal" fill="#999999">100</text><line x1="48" y1="121.33" x2="624" y2="121.33" stroke="#e6e6e6" stroke-width="1" /><text x="42" y="125.33" text-anchor="end" font-family="sans-serif" font-size="11" font-weight="normal" fill="#999999">200</text><line x1="48" y1="16" x2="624" y2="16" stroke="#e6e6e6" stroke-width="1" /><text x="42" y="20" text-anchor="end" font-family="sans-serif" font-size="11" font-weight="normal" fill="#999999">300</text><rect x="69.89" y="205.6" width="71.42" height="126.4" fill="#4e79a7" rx="2" /><text x="105.6" y="199.6" text-anchor="middle" font-family="sans-serif" font-size="11" font-weight="normal" fill="#333333">120</text><text x="105.6" y="348" text-anchor="middle" font-family="sans-serif" font-size="11" font-weight="normal" fill="#333333">Mon</text><rect x="185.09" y="121.33" width="71.42" height="210.67" fill="#f28e2b" rx="2" /><text x="220.8" y="115.33" text-anchor="middle" font-family="sans-serif" font-size="11" font-weight="normal" fill="#333333">200</text><text x="220.8" y="348" text-anchor="middle" font-family="sans-serif" font-size="11" font-weight="normal" fill="#333333">Tue</text><rect x="300.29" y="174" width="71.42" height="158" fill="#e15759" rx="2" /><text x="336" y="168" text-anchor="middle" font-family="sans-serif" font-size="11" font-weight="normal" fill="#333333">150</text><text x="336" y="348" text-anchor="middle" font-family="sans-serif" font-size="11" font-weight="normal" fill="#333333">Wed</text><rect x="415.49" y="237.2" width="71.42" height="94.8" fill="#76b7b2" rx="2" /><text x="451.2" y="231.2" text-anchor="middle" font-family="sans-serif" font-size="11" font-weight="normal" fill="#333333">90</text><text x="451.2" y="348" text-anchor="middle" font-family="sans-serif" font-size="11" font-weight="normal" fill="#333333">Thu</text><rect x="530.69" y="79.2" width="71.42" height="252.8" fill="#59a14f" rx="2" /><text x="566.4" y="73.2" text-anchor="middle" font-family="sans-serif" font-size="11" font-weight="normal" fill="#333333">240</text><text x="566.4" y="348" text-anchor="middle" font-family="sans-serif" font-size="11" font-weight="normal" fill="#333333">Fri</text></svg>